<svg width="256" height="256" viewBox="0 0 67.733 67.733" xmlns="http://www.w3.org/2000/svg"><g style="stroke-width:2.8125"><path d="M4.583 650.342c26.304 0 47.627-21.324 47.627-47.628s-21.323-47.628-47.627-47.628c-26.304 0-47.627 21.324-47.627 47.628s21.323 47.628 47.627 47.628z" fill="#fff" style="stroke-width:2.8125" transform="matrix(.35556 0 0 .35556 32.238 -180.433)"/><path d="m-36.664 626.539-41.24-71.43a95.227 95.227 0 0 0-.003 95.25 95.234 95.234 0 0 0 82.496 47.61l41.24-71.43v-.011a47.613 47.613 0 0 1-17.428 17.443 47.62 47.62 0 0 1-47.632.007 47.62 47.62 0 0 1-17.433-17.437z" fill="#229342" style="stroke-width:2.8125" transform="matrix(.35556 0 0 .35556 32.238 -180.433)"/><path d="m45.826 626.536-41.239 71.43a95.229 95.229 0 0 0 82.489-47.622 95.24 95.24 0 0 0 12.755-47.627 95.237 95.237 0 0 0-12.772-47.623H4.58l-.01.007a47.62 47.62 0 0 1 23.819 6.372 47.618 47.618 0 0 1 17.439 17.431 47.62 47.62 0 0 1-.001 47.633z" fill="#fbc116" style="stroke-width:2.8125" transform="matrix(.35556 0 0 .35556 32.238 -180.433)"/><path d="M4.583 640.43c20.824 0 37.705-16.881 37.705-37.706 0-20.825-16.881-37.705-37.705-37.705-20.824 0-37.705 16.881-37.705 37.705 0 20.824 16.881 37.706 37.705 37.706z" fill="#1a73e8" style="stroke-width:2.8125" transform="matrix(.35556 0 0 .35556 32.238 -180.433)"/><path d="M4.583 555.097h82.479a95.237 95.237 0 0 0-34.861-34.868 95.23 95.23 0 0 0-47.625-12.76 95.222 95.222 0 0 0-47.623 12.767 95.23 95.23 0 0 0-34.856 34.872l41.24 71.43.011.006a47.62 47.62 0 0 1-.015-47.633 47.61 47.61 0 0 1 41.252-23.815z" fill="#e33b2e" style="stroke-width:2.8125" transform="matrix(.35556 0 0 .35556 32.238 -180.433)"/></g></svg>