<svg viewBox="0 0 256 256" style="enable-background:new 0 0 256 256" xml:space="preserve" xmlns="http://www.w3.org/2000/svg"><g transform="matrix(1.17377 0 0 1.17377 -22.245 -22.302)" style="stroke-width:.851953"><linearGradient id="a" gradientUnits="userSpaceOnUse" x1="68.969" y1="88.216" x2="220.886" y2="88.216" gradientTransform="matrix(1 0 0 -1 0 258)"><stop offset="0" style="stop-color:#0c59a4"/><stop offset="1" style="stop-color:#114a8b"/></linearGradient><path d="M215.8 181.3c-2.9 1.5-5.9 2.8-9 4-9.4 3.5-19.7 5.5-30.6 5.5-40.3 0-75.4-27.7-75.4-63.3 0-10 5.8-18.7 14-23.2C78.3 105.8 69 143.8 69 166c0 62.9 58 69.3 70.5 69.3 6.7 0 16.9-2 23-3.9.4-.1.7-.2 1.1-.4 23.6-8.2 43.6-24.2 56.7-45 1.9-2.9-1.4-6.4-4.5-4.7z" style="fill:url(#a);stroke-width:.851953"/><radialGradient id="b" cx="152.878" cy="73.522" r="81.254" gradientTransform="matrix(1 0 0 -.9511 0 240.844)" gradientUnits="userSpaceOnUse"><stop offset=".717" style="stop-color:#000;stop-opacity:0"/><stop offset=".946" style="stop-color:#000;stop-opacity:.53"/><stop offset="1" style="stop-color:#000"/></radialGradient><path d="M215.8 181.3c-2.9 1.5-5.9 2.8-9 4-9.4 3.5-19.7 5.5-30.6 5.5-40.3 0-75.4-27.7-75.4-63.3 0-10 5.8-18.7 14-23.2C78.3 105.8 69 143.8 69 166c0 62.9 58 69.3 70.5 69.3 6.7 0 16.9-2 23-3.9.4-.1.7-.2 1.1-.4 23.6-8.2 43.6-24.2 56.7-45 1.9-2.9-1.4-6.4-4.5-4.7z" style="fill:url(#b);stroke-width:.851953;opacity:.35;enable-background:new"/><linearGradient id="c" gradientUnits="userSpaceOnUse" x1="149.061" y1="154.122" x2="54.167" y2="50.76" gradientTransform="matrix(1 0 0 -1 0 258)"><stop offset="0" style="stop-color:#1b9de2"/><stop offset=".162" style="stop-color:#1595df"/><stop offset=".667" style="stop-color:#0680d7"/><stop offset="1" style="stop-color:#0078d4"/></linearGradient><path d="M109 224.6c-7.6-4.7-14.2-10.9-19.4-18.2-8.1-11.3-12.9-25.3-12.9-40.4 0-22.3 10.4-42 26.3-54.5 3.6-2.8 8.3-5.7 11.7-7.3 2.7-1.3 7.2-3.5 13.2-3.4 10 .1 17.6 5.2 21.9 11 3.3 4.5 5.3 9.9 5.4 15.9 0-.2 20.8-67.8-68.2-67.8-37.2 0-68 35.5-68 66.7 0 19.7 4.6 35.5 10.3 47.7 12.8 27.2 36.5 48.3 65.5 57.6 10.5 3.4 21.7 5.2 33.3 5.2 12 0 23.6-2 34.5-5.6-6.1 1.9-12.6 3-19.4 3-12.6-.1-24.2-3.7-34.2-9.9z" style="fill:url(#c);stroke-width:.851953"/><radialGradient id="d" cx="-415.874" cy="-60.546" r="122.017" gradientTransform="matrix(.1484 -.9889 -.7969 -.1196 93.184 -230.311)" gradientUnits="userSpaceOnUse"><stop offset=".763" style="stop-color:#000;stop-opacity:0"/><stop offset=".946" style="stop-color:#000;stop-opacity:.5"/><stop offset="1" style="stop-color:#000"/></radialGradient><path d="M109 224.6c-7.6-4.7-14.2-10.9-19.4-18.2-8.1-11.3-12.9-25.3-12.9-40.4 0-22.3 10.4-42 26.3-54.5 3.6-2.8 8.3-5.7 11.7-7.3 2.7-1.3 7.2-3.5 13.2-3.4 10 .1 17.6 5.2 21.9 11 3.3 4.5 5.3 9.9 5.4 15.9 0-.2 20.8-67.8-68.2-67.8-37.2 0-68 35.5-68 66.7 0 19.7 4.6 35.5 10.3 47.7 12.8 27.2 36.5 48.3 65.5 57.6 10.5 3.4 21.7 5.2 33.3 5.2 12 0 23.6-2 34.5-5.6-6.1 1.9-12.6 3-19.4 3-12.6-.1-24.2-3.7-34.2-9.9z" style="fill:url(#d);stroke-width:.851953;opacity:.41;enable-background:new"/><radialGradient id="e" cx="26.432" cy="621.427" r="172.444" gradientTransform="matrix(-.03715 .9993 2.1284 .07913 -1281.18 -16.754)" gradientUnits="userSpaceOnUse"><stop offset="0" style="stop-color:#35c1f1"/><stop offset=".111" style="stop-color:#34c1ed"/><stop offset=".232" style="stop-color:#2fc2df"/><stop offset=".315" style="stop-color:#2bc3d2"/><stop offset=".673" style="stop-color:#36c752"/></radialGradient><path d="M148.7 145.8c-.7.9-2.8 2.1-2.8 4.8 0 2.2 1.4 4.4 4 6.2 12.3 8.5 35.3 7.4 35.4 7.4 9.5 0 18.1-2.7 25.8-7.1 3.5-2 6.7-4.5 9.6-7.2 10-9.5 16.1-22.9 16.3-37.8.2-19.1-6.8-31.8-9.7-37.4C209.3 39.3 170.4 19 128 19 68.3 19 19.8 67 19 126.5c.4-31.1 31.3-56.3 68.1-56.3 3 0 20 .3 35.8 8.6 13.9 7.3 21.2 16.1 26.3 24.9 5.3 9.1 6.2 20.6 6.2 25.1s-2.4 11.4-6.7 17z" style="fill:url(#e);stroke-width:.851953"/><radialGradient id="f" cx="310.119" cy="654.163" r="82.919" gradientTransform="matrix(.2811 .9597 .7835 -.2295 -374.215 -62.447)" gradientUnits="userSpaceOnUse"><stop offset="0" style="stop-color:#66eb6e"/><stop offset="1" style="stop-color:#66eb6e;stop-opacity:0"/></radialGradient><path d="M148.7 145.8c-.7.9-2.8 2.1-2.8 4.8 0 2.2 1.4 4.4 4 6.2 12.3 8.5 35.3 7.4 35.4 7.4 9.5 0 18.1-2.7 25.8-7.1 3.5-2 6.7-4.5 9.6-7.2 10-9.5 16.1-22.9 16.3-37.8.2-19.1-6.8-31.8-9.7-37.4C209.3 39.3 170.4 19 128 19 68.3 19 19.8 67 19 126.5c.4-31.1 31.3-56.3 68.1-56.3 3 0 20 .3 35.8 8.6 13.9 7.3 21.2 16.1 26.3 24.9 5.3 9.1 6.2 20.6 6.2 25.1s-2.4 11.4-6.7 17z" style="fill:url(#f);stroke-width:.851953"/></g></svg>