<svg width="256mm" height="256mm" viewBox="0 0 256 256" xmlns:xlink="http://www.w3.org/1999/xlink" xmlns="http://www.w3.org/2000/svg"><defs><linearGradient id="b"><stop offset="0" stop-color="#06c2e7"/><stop offset=".25" stop-color="#0db8ec"/><stop offset=".5" stop-color="#12aef1"/><stop offset=".75" stop-color="#1f86f9"/><stop offset="1" stop-color="#107ddd"/></linearGradient><linearGradient id="a"><stop offset="0" stop-color="#bdbdbd"/><stop offset="1" stop-color="#fff"/></linearGradient><linearGradient xlink:href="#a" id="c" x1="412.975" x2="412.975" y1="237.608" y2="59.392" gradientTransform="translate(206.79 159.773) scale(.35154)" gradientUnits="userSpaceOnUse"/><linearGradient xlink:href="#a" id="d" gradientUnits="userSpaceOnUse" gradientTransform="matrix(1.36053 0 0 1.35071 -433.875 -78.492)" x1="412.975" y1="237.608" x2="412.975" y2="59.392"/><radialGradient xlink:href="#b" id="e" cx="413.061" cy="136.818" r="82.125" fx="413.061" fy="136.818" gradientTransform="translate(194.545 155.58) scale(.38143)" gradientUnits="userSpaceOnUse"/><radialGradient xlink:href="#b" id="f" gradientUnits="userSpaceOnUse" gradientTransform="matrix(1.4762 0 0 1.46556 -481.267 -94.6)" cx="413.061" cy="136.818" fx="413.061" fy="136.818" r="82.125"/><filter id="g" width="1.043" height="1.045" x="-.021" y="-.022" color-interpolation-filters="sRGB"><feGaussianBlur stdDeviation=".958"/></filter></defs><g style="stroke-width:.94749"><path fill="url(#c)" stroke="#cdcdcd" stroke-linecap="round" stroke-linejoin="round" stroke-width=".088" d="M249.229 122.09a121.235 120.36 0 0 1-121.235 120.36A121.235 120.36 0 0 1 6.76 122.09 121.235 120.36 0 0 1 127.994 1.73 121.235 120.36 0 0 1 249.23 122.09Z" paint-order="markers stroke fill" style="fill:url(#d)" transform="translate(-7.088 -.857) scale(1.05542)"/><path fill="url(#e)" d="M239.729 122.09A111.735 110.929 0 0 1 127.994 233.02 111.735 110.929 0 0 1 16.26 122.09 111.735 110.929 0 0 1 127.994 11.162 111.735 110.929 0 0 1 239.73 122.09Z" paint-order="markers stroke fill" style="fill:url(#f);stroke-width:.94749" transform="translate(-7.088 -.857) scale(1.05542)"/><path fill="#f4f2f3" d="M127.994 16.947a1.62 1.62 0 0 0-1.629 1.617v18.655a1.62 1.62 0 0 0 1.63 1.617 1.62 1.62 0 0 0 1.628-1.617V18.564a1.62 1.62 0 0 0-1.629-1.617zm-10.657.668a1.507 1.507 0 0 0-.331.002 1.617 1.617 0 0 0-1.451 1.776l.82 7.804a1.623 1.623 0 0 0 1.79 1.441 1.617 1.617 0 0 0 1.451-1.776l-.82-7.805a1.62 1.62 0 0 0-1.46-1.442zm21.389.008a1.62 1.62 0 0 0-1.46 1.441l-.826 7.804a1.617 1.617 0 0 0 1.45 1.778 1.622 1.622 0 0 0 1.79-1.44l.827-7.804a1.617 1.617 0 0 0-1.45-1.777 1.735 1.735 0 0 0-.331-.002zm-32.337 1.568a1.614 1.614 0 0 0-1.585 1.952l3.891 18.25a1.626 1.626 0 0 0 1.932 1.248 1.614 1.614 0 0 0 1.256-1.917l-3.891-18.25a1.623 1.623 0 0 0-1.603-1.284zm43.284.016a1.62 1.62 0 0 0-1.603 1.281l-3.905 18.248a1.614 1.614 0 0 0 1.255 1.918 1.625 1.625 0 0 0 1.932-1.246l3.905-18.248a1.614 1.614 0 0 0-1.584-1.952zm-53.731 2.909c-.211-.02-.43.004-.644.075a1.611 1.611 0 0 0-1.046 2.037l2.443 7.463a1.628 1.628 0 0 0 2.053 1.039 1.611 1.611 0 0 0 1.045-2.038l-2.442-7.464a1.623 1.623 0 0 0-1.41-1.112Zm64.12.004c-.633.053-1.2.473-1.41 1.112l-2.443 7.463a1.611 1.611 0 0 0 1.045 2.038 1.628 1.628 0 0 0 2.053-1.038l2.444-7.463a1.611 1.611 0 0 0-1.045-2.038 1.647 1.647 0 0 0-.644-.074zM85.61 25.87c-.212.003-.426.05-.632.14a1.61 1.61 0 0 0-.827 2.135l7.632 17.047a1.63 1.63 0 0 0 2.15.82 1.61 1.61 0 0 0 .827-2.134l-7.632-17.047a1.626 1.626 0 0 0-1.518-.961Zm84.9.057a1.63 1.63 0 0 0-1.52.96l-7.654 17.036c-.368.818 0 1.77.824 2.136a1.63 1.63 0 0 0 2.151-.818l7.655-17.037a1.61 1.61 0 0 0-.824-2.136 1.65 1.65 0 0 0-.632-.141zm-94.49 4.98a1.62 1.62 0 0 0-.928.214 1.607 1.607 0 0 0-.596 2.21l3.952 6.795a1.632 1.632 0 0 0 2.225.592 1.607 1.607 0 0 0 .596-2.209l-3.952-6.796a1.627 1.627 0 0 0-1.297-.806zm103.949 0a1.622 1.622 0 0 0-1.297.806l-3.953 6.796a1.608 1.608 0 0 0 .597 2.21 1.632 1.632 0 0 0 2.226-.593l3.952-6.796a1.607 1.607 0 0 0-.597-2.209 1.637 1.637 0 0 0-.928-.214zM66.708 36.673a1.641 1.641 0 0 0-.902.309 1.606 1.606 0 0 0-.362 2.258l11.034 15.1c.53.726 1.545.886 2.276.36.73-.526.892-1.533.361-2.259l-11.034-15.1a1.629 1.629 0 0 0-1.373-.668zm122.69.082a1.627 1.627 0 0 0-1.375.666l-11.054 15.086a1.606 1.606 0 0 0 .359 2.26c.73.526 1.745.368 2.276-.357l11.053-15.085c.531-.725.37-1.732-.359-2.26a1.634 1.634 0 0 0-.9-.31zM58.384 43.604a1.626 1.626 0 0 0-1.176.414c-.67.6-.724 1.618-.12 2.284l5.288 5.833c.604.666 1.63.72 2.3.12.671-.6.725-1.62.121-2.285l-5.288-5.832a1.63 1.63 0 0 0-1.125-.535zm139.232.011a1.636 1.636 0 0 0-1.125.535l-5.289 5.83a1.606 1.606 0 0 0 .12 2.285c.671.6 1.697.546 2.301-.12l5.29-5.83a1.606 1.606 0 0 0-.121-2.285 1.63 1.63 0 0 0-1.175-.415zm-147.21 7.596a1.634 1.634 0 0 0-1.125.535 1.606 1.606 0 0 0 .12 2.284l13.966 12.481c.67.6 1.697.546 2.3-.12a1.605 1.605 0 0 0-.12-2.284l-13.966-12.48c-.335-.3-.76-.437-1.175-.415zm155.227.055a1.628 1.628 0 0 0-1.176.414L190.483 64.15a1.606 1.606 0 0 0-.123 2.284c.603.666 1.63.72 2.301.121l13.975-12.47a1.606 1.606 0 0 0 .122-2.285 1.63 1.63 0 0 0-1.125-.535zM43.772 59.68a1.627 1.627 0 0 0-1.375.668c-.53.725-.37 1.732.36 2.259l6.395 4.612c.73.527 1.745.368 2.276-.357.53-.725.37-1.733-.36-2.26l-6.395-4.612a1.635 1.635 0 0 0-.901-.31Zm168.489.06a1.638 1.638 0 0 0-.901.308l-6.398 4.608a1.607 1.607 0 0 0-.362 2.26c.53.725 1.545.884 2.275.358l6.398-4.608c.73-.526.892-1.533.362-2.259a1.629 1.629 0 0 0-1.374-.668zM37.572 68.713a1.622 1.622 0 0 0-1.296.806 1.607 1.607 0 0 0 .596 2.21l16.272 9.327a1.632 1.632 0 0 0 2.226-.592 1.607 1.607 0 0 0-.596-2.209L38.5 68.928a1.637 1.637 0 0 0-.929-.214zm180.844 0a1.622 1.622 0 0 0-.928.215l-16.273 9.327a1.607 1.607 0 0 0-.596 2.21 1.632 1.632 0 0 0 2.225.591l16.273-9.327a1.607 1.607 0 0 0 .597-2.21 1.627 1.627 0 0 0-1.298-.806zm-185.531 9.63a1.623 1.623 0 0 0-1.52.958c-.367.819 0 1.771.824 2.136l7.22 3.197a1.63 1.63 0 0 0 2.15-.818 1.61 1.61 0 0 0-.824-2.136l-7.218-3.197a1.634 1.634 0 0 0-.632-.14zm190.25.066c-.211.003-.426.05-.632.14l-7.221 3.192a1.61 1.61 0 0 0-.826 2.135 1.631 1.631 0 0 0 2.151.82l7.221-3.192a1.609 1.609 0 0 0 .825-2.135 1.625 1.625 0 0 0-1.518-.96zM28.707 88.407c-.633.053-1.2.472-1.41 1.111a1.611 1.611 0 0 0 1.044 2.04l17.866 5.779a1.628 1.628 0 0 0 2.054-1.037 1.611 1.611 0 0 0-1.044-2.039l-17.866-5.78a1.64 1.64 0 0 0-.644-.074zm198.598.07c-.21-.02-.428.003-.643.074l-17.87 5.767a1.611 1.611 0 0 0-1.046 2.038 1.628 1.628 0 0 0 2.053 1.038l17.87-5.767a1.612 1.612 0 0 0 1.046-2.038 1.624 1.624 0 0 0-1.41-1.113zm-201.2 10.495a1.622 1.622 0 0 0-1.605 1.282 1.614 1.614 0 0 0 1.255 1.918l7.732 1.631a1.625 1.625 0 0 0 1.932-1.246 1.614 1.614 0 0 0-1.255-1.918l-7.73-1.631a1.61 1.61 0 0 0-.33-.035zm203.783.015c-.109 0-.218.015-.328.035l-7.732 1.63a1.613 1.613 0 0 0-1.255 1.918 1.626 1.626 0 0 0 1.932 1.246l7.731-1.63a1.615 1.615 0 0 0 1.256-1.918 1.624 1.624 0 0 0-1.604-1.283zM24.134 109.598a1.616 1.616 0 0 0-.012 3.218l18.687 1.962a1.617 1.617 0 1 0 .342-3.217l-18.686-1.962a1.66 1.66 0 0 0-.331 0zm207.738.14a1.53 1.53 0 0 0-.331 0l-18.689 1.937a1.617 1.617 0 1 0 .338 3.217l18.689-1.936a1.617 1.617 0 0 0-.007-3.219zM23.818 120.476a1.62 1.62 0 0 0-1.63 1.617 1.62 1.62 0 0 0 1.63 1.617h7.904a1.62 1.62 0 0 0 1.63-1.617 1.62 1.62 0 0 0-1.63-1.617zm200.449 0a1.62 1.62 0 0 0-1.63 1.617 1.62 1.62 0 0 0 1.63 1.617h7.904a1.62 1.62 0 0 0 1.629-1.617 1.62 1.62 0 0 0-1.63-1.617zm-181.138 8.816a1.522 1.522 0 0 0-.33.001l-18.69 1.936a1.617 1.617 0 1 0 .339 3.218l18.689-1.937a1.617 1.617 0 0 0-.008-3.218zm169.72.115a1.617 1.617 0 0 0-.012 3.219l18.687 1.96a1.617 1.617 0 1 0 .342-3.217l-18.685-1.96a1.668 1.668 0 0 0-.332-.002zM33.813 140.333c-.108 0-.218.011-.329.034l-7.731 1.63a1.614 1.614 0 0 0-1.255 1.919 1.626 1.626 0 0 0 1.932 1.246l7.731-1.63a1.614 1.614 0 0 0 1.255-1.918 1.623 1.623 0 0 0-1.603-1.282zm188.36.015a1.62 1.62 0 0 0-1.603 1.281 1.613 1.613 0 0 0 1.254 1.919l7.732 1.63a1.625 1.625 0 0 0 1.932-1.244 1.615 1.615 0 0 0-1.255-1.92l-7.731-1.63a1.606 1.606 0 0 0-.329-.035zm-175.34 6.37c-.211-.02-.429.004-.643.074l-17.87 5.767a1.611 1.611 0 0 0-1.046 2.039 1.628 1.628 0 0 0 2.053 1.037l17.87-5.766a1.612 1.612 0 0 0 1.046-2.039 1.624 1.624 0 0 0-1.41-1.112zm162.305.057c-.633.053-1.2.473-1.41 1.111a1.611 1.611 0 0 0 1.044 2.04l17.866 5.779a1.628 1.628 0 0 0 2.054-1.037 1.611 1.611 0 0 0-1.044-2.039l-17.866-5.779a1.639 1.639 0 0 0-.644-.075zM40.014 159.35c-.212.004-.426.05-.632.14l-7.222 3.192a1.609 1.609 0 0 0-.825 2.135 1.63 1.63 0 0 0 2.15.82l7.222-3.191a1.609 1.609 0 0 0 .825-2.136 1.626 1.626 0 0 0-1.518-.96zm175.935.062a1.623 1.623 0 0 0-1.52.959c-.367.818 0 1.77.824 2.135l7.219 3.197a1.63 1.63 0 0 0 2.151-.818 1.61 1.61 0 0 0-.824-2.136l-7.218-3.196a1.635 1.635 0 0 0-.632-.141zm-161.876 3.504a1.622 1.622 0 0 0-.929.215l-16.272 9.327a1.607 1.607 0 0 0-.596 2.21 1.632 1.632 0 0 0 2.225.591l16.273-9.327a1.608 1.608 0 0 0 .596-2.21 1.626 1.626 0 0 0-1.297-.806zm147.843 0a1.623 1.623 0 0 0-1.297.806 1.608 1.608 0 0 0 .596 2.21l16.273 9.327a1.633 1.633 0 0 0 2.226-.592 1.607 1.607 0 0 0-.597-2.21l-16.273-9.326a1.635 1.635 0 0 0-.928-.215zM50.014 176.603a1.639 1.639 0 0 0-.901.31l-6.397 4.608a1.606 1.606 0 0 0-.363 2.258c.53.726 1.545.886 2.276.36l6.398-4.609c.73-.526.892-1.533.362-2.258a1.63 1.63 0 0 0-1.375-.669zm155.921.055a1.627 1.627 0 0 0-1.374.667c-.53.725-.37 1.733.36 2.26l6.395 4.612c.73.526 1.745.367 2.275-.358.53-.725.37-1.732-.36-2.259l-6.394-4.612a1.636 1.636 0 0 0-.902-.31zm-141.432.558a1.626 1.626 0 0 0-1.175.414l-13.975 12.471a1.605 1.605 0 0 0-.122 2.284c.604.666 1.63.72 2.3.122l13.975-12.472a1.605 1.605 0 0 0 .122-2.284 1.629 1.629 0 0 0-1.125-.535zm126.943.045a1.635 1.635 0 0 0-1.125.534 1.606 1.606 0 0 0 .12 2.284l13.966 12.481c.67.6 1.697.546 2.3-.12a1.605 1.605 0 0 0-.12-2.284l-13.966-12.48a1.63 1.63 0 0 0-1.175-.415zM77.761 189.109a1.627 1.627 0 0 0-1.376.665L65.332 204.86a1.607 1.607 0 0 0 .358 2.26c.73.526 1.745.368 2.276-.357l11.054-15.085a1.607 1.607 0 0 0-.359-2.26 1.63 1.63 0 0 0-.9-.31zm100.376.067a1.638 1.638 0 0 0-.901.309 1.606 1.606 0 0 0-.363 2.258l11.034 15.1c.53.726 1.544.886 2.275.36.73-.526.892-1.533.362-2.259l-11.033-15.1a1.629 1.629 0 0 0-1.374-.668zm-114.646 2.33a1.636 1.636 0 0 0-1.126.535l-5.288 5.83a1.606 1.606 0 0 0 .12 2.285c.67.6 1.697.546 2.3-.12l5.29-5.83a1.606 1.606 0 0 0-.12-2.285 1.63 1.63 0 0 0-1.176-.415zm128.997.008a1.624 1.624 0 0 0-1.175.415c-.671.6-.725 1.618-.121 2.284l5.287 5.832c.604.666 1.63.72 2.3.12.672-.6.726-1.619.122-2.285l-5.288-5.831a1.629 1.629 0 0 0-1.126-.535zm-99.291 6.47a1.622 1.622 0 0 0-1.519.958l-7.656 17.036c-.367.819 0 1.771.824 2.136a1.63 1.63 0 0 0 2.152-.818l7.656-17.036a1.61 1.61 0 0 0-.825-2.136 1.638 1.638 0 0 0-.632-.14zm69.491.046a1.64 1.64 0 0 0-.632.14 1.61 1.61 0 0 0-.827 2.135l7.632 17.047a1.63 1.63 0 0 0 2.15.82 1.61 1.61 0 0 0 .827-2.134l-7.632-17.047a1.627 1.627 0 0 0-1.518-.961zm-82.944 5.22a1.622 1.622 0 0 0-1.296.807l-3.952 6.795a1.607 1.607 0 0 0 .596 2.21 1.632 1.632 0 0 0 2.225-.592l3.952-6.796a1.607 1.607 0 0 0-.596-2.21 1.637 1.637 0 0 0-.929-.214zm96.5 0a1.623 1.623 0 0 0-.928.215 1.607 1.607 0 0 0-.596 2.21l3.952 6.795a1.632 1.632 0 0 0 2.225.592 1.607 1.607 0 0 0 .597-2.21l-3.952-6.795a1.627 1.627 0 0 0-1.298-.806zm-66.004.244a1.62 1.62 0 0 0-1.603 1.282l-3.905 18.248a1.614 1.614 0 0 0 1.255 1.918 1.625 1.625 0 0 0 1.932-1.246l3.905-18.248a1.614 1.614 0 0 0-1.584-1.953zm35.45.012a1.614 1.614 0 0 0-1.585 1.951l3.893 18.25a1.626 1.626 0 0 0 1.93 1.248 1.614 1.614 0 0 0 1.257-1.917l-3.892-18.25a1.623 1.623 0 0 0-1.602-1.283zm-17.696 1.84a1.62 1.62 0 0 0-1.629 1.617v18.655a1.62 1.62 0 0 0 1.63 1.618 1.62 1.62 0 0 0 1.628-1.618v-18.655a1.62 1.62 0 0 0-1.629-1.617zm-29.903 6.028c-.633.054-1.2.474-1.41 1.113l-2.443 7.463a1.611 1.611 0 0 0 1.045 2.038 1.629 1.629 0 0 0 2.053-1.039l2.444-7.462a1.611 1.611 0 0 0-1.046-2.038 1.643 1.643 0 0 0-.643-.075zm59.794.004c-.211-.019-.429.004-.643.074a1.612 1.612 0 0 0-1.047 2.039l2.443 7.463a1.628 1.628 0 0 0 2.053 1.038 1.611 1.611 0 0 0 1.046-2.038l-2.443-7.463a1.623 1.623 0 0 0-1.41-1.113zm-40.116 4.157a1.62 1.62 0 0 0-1.46 1.44l-.827 7.805a1.616 1.616 0 0 0 1.45 1.777 1.623 1.623 0 0 0 1.79-1.44l.827-7.803a1.617 1.617 0 0 0-1.78-1.779zm20.385.008a1.53 1.53 0 0 0-.331 0 1.617 1.617 0 0 0-1.451 1.777l.821 7.805a1.622 1.622 0 0 0 1.79 1.44 1.617 1.617 0 0 0 1.45-1.776l-.82-7.805a1.62 1.62 0 0 0-1.459-1.442z" paint-order="markers stroke fill" style="stroke-width:.94749" transform="translate(-7.088 -.857) scale(1.05542)"/><path d="m469.096 100.607-65.51 38.061-41.42 65.207 60.595-44.882z" filter="url(#g)" opacity=".409" paint-order="markers stroke fill" transform="matrix(1.43593 0 0 1.42557 -465.008 -83.699)" style="stroke-width:.245705"/><path fill="#ff5150" d="m140.768 135.37-25.547-26.56 90.625-60.523z" paint-order="markers stroke fill" style="stroke-width:.94749" transform="translate(-7.088 -.857) scale(1.05542)"/><path fill="#f1f1f1" d="m140.768 135.37-25.547-26.56-65.078 87.084z" paint-order="markers stroke fill" style="stroke-width:.94749" transform="translate(-7.088 -.857) scale(1.05542)"/><path d="m50.143 195.894 90.625-60.524 65.077-87.084Z" opacity=".243" style="stroke-width:.94749" transform="translate(-7.088 -.857) scale(1.05542)"/></g></svg>